<svg version="1.2" baseProfile="tiny-ps" xmlns="http://www.w3.org/2000/svg" viewBox="0 0 42 42" width="42" height="42">
	<title>New Project</title>
	<style>
		tspan { white-space:pre }
		.shp0 { fill: #ffd401 } 
		.shp1 { fill: #ffffff } 
	</style>
	<path id="Layer" class="shp0" d="M0 21C0 9.4 9.4 0 21 0L21 0C32.6 0 42 9.4 42 21L42 21C42 32.6 32.6 42 21 42L21 42C9.4 42 0 32.6 0 21L0 21Z" />
	<path id="Layer" class="shp0" d="M11 11L31 11L31 31L11 31L11 11Z" />
	<path id="Layer" fill-rule="evenodd" class="shp1" d="M25.59 11C28.57 11 31 13.43 31 16.41L31 25.59C31 28.57 28.57 31 25.59 31L16.41 31C13.43 31 11 28.57 11 25.59L11 16.41C11 13.43 13.43 11 16.41 11L25.59 11ZM21 26.47C24.02 26.47 26.47 24.02 26.47 21C26.47 17.98 24.02 15.53 21 15.53C17.98 15.53 15.53 17.98 15.53 21C15.53 24.02 17.98 26.47 21 26.47ZM28.22 15.21C28.22 14.31 27.49 13.59 26.6 13.59C25.71 13.59 24.98 14.31 24.98 15.21C24.98 16.1 25.71 16.82 26.6 16.82C27.49 16.82 28.22 16.1 28.22 15.21Z" />
	<path id="Layer" class="shp1" d="M21 17C23.21 17 25 18.79 25 21C25 23.21 23.21 25 21 25C18.79 25 17 23.21 17 21C17 18.79 18.79 17 21 17L21 17Z" />
	<path id="Layer" class="shp1" d="M27.04 15.21C27.04 15.45 26.84 15.65 26.6 15.65C26.35 15.65 26.16 15.45 26.16 15.21C26.16 14.96 26.35 14.76 26.6 14.76C26.84 14.76 27.04 14.96 27.04 15.21Z" />
</svg>