<svg version="1.2" baseProfile="tiny-ps" xmlns="http://www.w3.org/2000/svg" viewBox="0 0 42 42" width="42" height="42">
	<title>New Project</title>
	<defs>
		<clipPath clipPathUnits="userSpaceOnUse" id="cp1">
			<path d="M11 11L31 11L31 31L11 31L11 11Z" />
		</clipPath>
	</defs>
	<style>
		tspan { white-space:pre }
		.shp0 { fill: #ffd401 } 
		.shp1 { fill: #ffffff } 
	</style>
	<path id="Layer" class="shp0" d="M0 21C0 9.4 9.4 0 21 0L21 0C32.6 0 42 9.4 42 21L42 21C42 32.6 32.6 42 21 42L21 42C9.4 42 0 32.6 0 21L0 21Z" />
	<g id="Clip-Path" clip-path="url(#cp1)">
		<g id="Layer">
			<path id="Layer" class="shp0" d="M11 11L31 11L31 31L11 31L11 11Z" />
			<path id="Layer" class="shp1" d="M22.6 11C23.18 11 24.5 11 25.67 11C25.67 12.46 25.67 14.05 25.67 14.51C24.8 14.51 23.85 14.51 23.41 14.51C22.96 14.51 22.51 14.97 22.51 15.31C22.51 15.66 22.51 17.61 22.51 17.61C22.51 17.61 25.3 17.61 25.66 17.61C25.54 19.38 25.28 20.99 25.28 20.99L22.49 20.99L22.49 31L18.35 31L18.35 20.99L16.33 20.99L16.33 17.63L18.35 17.63C18.35 17.63 18.35 15.38 18.35 14.87C18.35 14.37 18.25 11 22.6 11Z" />
		</g>
	</g>
</svg>